HIERARCHY
ROOT root
{
	OFFSET	0	13.1	24.9
	CHANNELS 6  Xposition Yposition Zposition Xrotation Yrotation Zrotation
	JOINT spine_1
	{
		OFFSET	0	9.99999	0
		CHANNELS 3  Xrotation Yrotation Zrotation
		JOINT spine_2
		{
			OFFSET	0	112	-10
			CHANNELS 3  Xrotation Yrotation Zrotation
			JOINT spine_3
			{
				OFFSET	0	206.5	19.3
				CHANNELS 3  Xrotation Yrotation Zrotation
				JOINT spine_4
				{
					OFFSET	0	110.4	14.6
					CHANNELS 3  Xrotation Yrotation Zrotation
					JOINT neck_1
					{
						OFFSET	0	71.8	-50.3
						CHANNELS 3  Xrotation Yrotation Zrotation
						JOINT neck_2
						{
							OFFSET	0	86.2	-25.8
							CHANNELS 3  Xrotation Yrotation Zrotation
							JOINT head_ee
							{
								OFFSET	0	179.8	-8.7
								CHANNELS 3  Xrotation Yrotation Zrotation
								End Site
								{
									OFFSET	1	0	0
								}
							}
						}
					}
					JOINT left_clavicle
					{
						OFFSET	-43.2	22.4	-70.8
						CHANNELS 3  Xrotation Yrotation Zrotation
						JOINT left_shoulder
						{
							OFFSET	-93.9	-5.79999	48.7
							CHANNELS 3  Xrotation Yrotation Zrotation
							JOINT left_elbow
							{
								OFFSET	-291.4	-30.8	15.2
								CHANNELS 3  Xrotation Yrotation Zrotation
								JOINT left_lowarm_twist
								{
									OFFSET	-110.7	-3.89999	13.6
									CHANNELS 3  Xrotation Yrotation Zrotation
									JOINT left_hand
									{
										OFFSET	-110.7	-3.89999	13.6
										CHANNELS 3  Xrotation Yrotation Zrotation
										JOINT left_ee
										{
											OFFSET	-80.8	-5.10001	12.1
											CHANNELS 3  Xrotation Yrotation Zrotation
											End Site
											{
												OFFSET	1	0	0
											}
										}
									}
								}
							}
						}
					}
					JOINT right_clavicle
					{
						OFFSET	43.2	22.4	-70.8
						CHANNELS 3  Xrotation Yrotation Zrotation
						JOINT right_shoulder
						{
							OFFSET	93.9	-5.79999	48.7
							CHANNELS 3  Xrotation Yrotation Zrotation
							JOINT right_elbow
							{
								OFFSET	291.4	-30.8	15.2
								CHANNELS 3  Xrotation Yrotation Zrotation
								JOINT right_lowarm_twist
								{
									OFFSET	110.7	-3.89999	13.6
									CHANNELS 3  Xrotation Yrotation Zrotation
									JOINT right_hand
									{
										OFFSET	110.7	-3.89999	13.6
										CHANNELS 3  Xrotation Yrotation Zrotation
										JOINT right_ee
										{
											OFFSET	80.8	-5.10001	12.1
											CHANNELS 3  Xrotation Yrotation Zrotation
											End Site
											{
												OFFSET	1	0	0
											}
										}
									}
								}
							}
						}
					}
				}
			}
		}
	}
	JOINT left_hip
	{
		OFFSET	-82.8	-127.5	0.300001
		CHANNELS 3  Xrotation Yrotation Zrotation
		JOINT left_knee
		{
			OFFSET	-28.2	-396.7	2.2
			CHANNELS 3  Xrotation Yrotation Zrotation
			JOINT left_ankle
			{
				OFFSET	-11.7	-411.3	35.4
				CHANNELS 3  Xrotation Yrotation Zrotation
				JOINT left_toes
				{
					OFFSET	0	-60	-88.6
					CHANNELS 3  Xrotation Yrotation Zrotation
					JOINT left_foot_ee
					{
						OFFSET	-22.5	-16.5	-42.2
						CHANNELS 3  Xrotation Yrotation Zrotation
						End Site
						{
							OFFSET	1	0	0
						}
					}
				}
			}
		}
	}
	JOINT right_hip
	{
		OFFSET	82.8	-127.5	0.300001
		CHANNELS 3  Xrotation Yrotation Zrotation
		JOINT right_knee
		{
			OFFSET	28.2	-396.7	2.2
			CHANNELS 3  Xrotation Yrotation Zrotation
			JOINT right_ankle
			{
				OFFSET	11.7	-411.3	35.4
				CHANNELS 3  Xrotation Yrotation Zrotation
				JOINT right_toes
				{
					OFFSET	0	-60	-88.6
					CHANNELS 3  Xrotation Yrotation Zrotation
					JOINT right_foot_ee
					{
						OFFSET	22.5	-16.5	-42.2
						CHANNELS 3  Xrotation Yrotation Zrotation
						End Site
						{
							OFFSET	1	0	0
						}
					}
				}
			}
		}
	}
}
MOTION
Frames: 15
Frame Time: 0.02
391.555 721.904 -1204.45 178.736848677 -71.0417615881 176.208634323 -1.23001 -0.208734 -0.45504 -1.22991 -0.179356 -0.4674 -1.22832 -0.0664957 -0.496195 -1.22863 -0.144025 -0.479466 -1.57415 -3.11645 -0.943012 -1.56107 -4.85951 -1.38878 -0.0 0.0 -0.0 8.50517 -14.0223 16.4478 -42.6646 -72.0562 50.3934 0.251717 -7.10786 0.0156335 14.2295 0.280183 -1.79145 -0.0752264 1.49168 0.127185 -0.0 0.0 -0.0 11.5476 21.9739 -22.7456 -55.9025 55.5287 -32.9251 0.556859 15.4218 -0.0753987 -18.0842 0.975291 -2.08704 -0.757719 23.7582 15.1341 0.0 0.0 0.0 14.3259 15.1112 -5.7166 -20.9269 0.28347 3.18106 34.2478 -7.52679 -4.4411 -15.9296 0.0 0.0 -0.0 0.0 -0.0 3.66953 -8.65352 4.68643 -9.92111 -0.279631 -1.495 22.4659 -11.7386 3.04247 9.89653 -0.0 -0.0 0.0 0.0 0.0 
397.583642186 721.164 -1206.71935616 -179.470261085 -70.7290414299 177.517925151 -0.701052 -0.131821 -0.198173 -0.701038 -0.118944 -0.206159 -0.700587 -0.070182 -0.227428 -0.700643 -0.105219 -0.21349 -2.2093 -2.93548 -0.306364 -2.1971 -5.06596 -0.715759 -0.0 0.0 -0.0 8.48334 -13.2426 16.4351 -47.0533 -72.1729 48.047 0.282915 -7.9781 0.0197291 13.8124 0.27834 -1.7382 0.0346417 1.1417 0.711048 -0.0 0.0 -0.0 11.4228 21.8501 -22.4716 -55.3271 55.853 -35.418 0.576619 15.9416 -0.0807396 -17.4384 0.929339 -2.01829 -0.809963 21.8521 14.7203 0.0 0.0 0.0 14.728 17.8976 -5.48518 -20.6041 0.287968 3.13174 34.8588 -8.59573 -4.52157 -14.6226 0.0 0.0 -0.0 0.0 -0.0 3.60964 -10.5179 5.52377 -7.99167 -0.245613 -1.2009 20.2026 -10.7685 2.76141 9.09536 -0.0 -0.0 0.0 0.0 0.0 
416.559707558 718.246 -1215.93074283 -178.759238508 -69.1132670229 178.885991791 0.567303 -0.229198 -0.299813 0.567329 -0.209656 -0.31379 0.568514 -0.142499 -0.349448 0.568397 -0.195899 -0.322557 -6.76051 -1.04848 3.0183 -6.73107 -4.13641 2.81772 -0.0 0.0 -0.0 7.70213 -10.6991 14.8529 -43.6075 -70.9038 54.9625 0.562945 -15.5822 0.0770251 11.7013 0.263072 -1.46901 -0.279733 5.34675 0.400706 -0.0 0.0 -0.0 11.6318 20.1634 -23.0795 -50.9918 57.9054 -41.6509 0.243178 6.86909 -0.0145946 -16.1489 0.839924 -1.87951 -0.641441 20.435 13.0013 0.0 0.0 0.0 14.341 19.6595 -6.0784 -20.3855 0.290856 3.09832 32.057 -7.02685 -4.21013 -15.3617 0.0 0.0 -0.0 0.0 -0.0 3.4237 -14.7379 6.20378 -5.14112 -0.177273 -0.768831 19.0255 -9.88063 2.61201 8.28686 -0.0 -0.0 0.0 0.0 0.0 
416.731405427 718.246 -1215.54916509 -178.806653483 -68.2421248243 178.835094236 0.567303 -0.229198 -0.299813 0.567329 -0.209656 -0.31379 0.568514 -0.142499 -0.349448 0.568397 -0.195899 -0.322557 -6.76051 -1.04848 3.0183 -6.73107 -4.13641 2.81772 -0.0 0.0 -0.0 7.70213 -10.6991 14.8529 -43.6075 -70.9038 54.9625 0.562945 -15.5822 0.0770251 11.7013 0.263072 -1.46901 -0.279733 5.34675 0.400706 -0.0 0.0 -0.0 11.6318 20.1634 -23.0795 -50.9918 57.9054 -41.6509 0.243178 6.86909 -0.0145946 -16.1489 0.839924 -1.87951 -0.641441 20.435 13.0013 0.0 0.0 0.0 14.341 19.6595 -6.0784 -20.3855 0.290856 3.09832 32.057 -7.02685 -4.21013 -15.3617 0.0 0.0 -0.0 0.0 -0.0 3.4237 -14.7379 6.20378 -5.14112 -0.177273 -0.768831 19.0255 -9.88063 2.61201 8.28686 -0.0 -0.0 0.0 0.0 0.0 
416.813125946 718.246 -1215.36191687 -178.82841608 -67.8167734206 178.81162755 0.567303 -0.229198 -0.299813 0.567329 -0.209656 -0.31379 0.568514 -0.142499 -0.349448 0.568397 -0.195899 -0.322557 -6.76051 -1.04848 3.0183 -6.73107 -4.13641 2.81772 -0.0 0.0 -0.0 7.70213 -10.6991 14.8529 -43.6075 -70.9038 54.9625 0.562945 -15.5822 0.0770251 11.7013 0.263072 -1.46901 -0.279733 5.34675 0.400706 -0.0 0.0 -0.0 11.6318 20.1634 -23.0795 -50.9918 57.9054 -41.6509 0.243178 6.86909 -0.0145946 -16.1489 0.839924 -1.87951 -0.641441 20.435 13.0013 0.0 0.0 0.0 14.341 19.6595 -6.0784 -20.3855 0.290856 3.09832 32.057 -7.02685 -4.21013 -15.3617 0.0 0.0 -0.0 0.0 -0.0 3.4237 -14.7379 6.20378 -5.14112 -0.177273 -0.768831 19.0255 -9.88063 2.61201 8.28686 -0.0 -0.0 0.0 0.0 0.0 
416.739858171 718.246 -1215.52997179 -178.808927645 -68.1984620168 178.832645259 0.567303 -0.229198 -0.299813 0.567329 -0.209656 -0.31379 0.568514 -0.142499 -0.349448 0.568397 -0.195899 -0.322557 -6.76051 -1.04848 3.0183 -6.73107 -4.13641 2.81772 -0.0 0.0 -0.0 7.70213 -10.6991 14.8529 -43.6075 -70.9038 54.9625 0.562945 -15.5822 0.0770251 11.7013 0.263072 -1.46901 -0.279733 5.34675 0.400706 -0.0 0.0 -0.0 11.6318 20.1634 -23.0795 -50.9918 57.9054 -41.6509 0.243178 6.86909 -0.0145946 -16.1489 0.839924 -1.87951 -0.641441 20.435 13.0013 0.0 0.0 0.0 14.341 19.6595 -6.0784 -20.3855 0.290856 3.09832 32.057 -7.02685 -4.21013 -15.3617 0.0 0.0 -0.0 0.0 -0.0 3.4237 -14.7379 6.20378 -5.14112 -0.177273 -0.768831 19.0255 -9.88063 2.61201 8.28686 -0.0 -0.0 0.0 0.0 0.0 
416.733931888 718.246 -1215.54343252 -178.807333782 -68.2290822607 178.83436172 0.567303 -0.229198 -0.299813 0.567329 -0.209656 -0.31379 0.568514 -0.142499 -0.349448 0.568397 -0.195899 -0.322557 -6.76051 -1.04848 3.0183 -6.73107 -4.13641 2.81772 -0.0 0.0 -0.0 7.70213 -10.6991 14.8529 -43.6075 -70.9038 54.9625 0.562945 -15.5822 0.0770251 11.7013 0.263072 -1.46901 -0.279733 5.34675 0.400706 -0.0 0.0 -0.0 11.6318 20.1634 -23.0795 -50.9918 57.9054 -41.6509 0.243178 6.86909 -0.0145946 -16.1489 0.839924 -1.87951 -0.641441 20.435 13.0013 0.0 0.0 0.0 14.341 19.6595 -6.0784 -20.3855 0.290856 3.09832 32.057 -7.02685 -4.21013 -15.3617 0.0 0.0 -0.0 0.0 -0.0 3.4237 -14.7379 6.20378 -5.14112 -0.177273 -0.768831 19.0255 -9.88063 2.61201 8.28686 -0.0 -0.0 0.0 0.0 0.0 
421.433105227 719.086 -1221.70381457 -177.03115003 -67.154386973 -178.982684112 0.94448 -0.306162 -0.498462 0.944576 -0.273824 -0.516933 0.947123 -0.168354 -0.560228 0.946775 -0.254717 -0.52661 -8.01773 -1.32864 3.6627 -7.97865 -5.06934 3.34282 -0.0 0.0 -0.0 7.57521 -9.61295 14.621 -47.4541 -72.536 51.6399 0.652911 -17.923 0.102962 12.0746 0.266493 -1.51655 -0.597308 5.53906 -1.59847 -0.0 0.0 -0.0 11.5502 20.5222 -22.8671 -49.8402 57.3351 -43.1004 0.230093 6.50274 -0.0130712 -15.6016 0.80293 -1.82002 -0.609765 19.8472 12.5448 0.0 0.0 0.0 14.5051 19.7835 -5.82586 -19.519 0.301052 2.96575 32.422 -5.97774 -4.23094 -15.7522 0.0 0.0 -0.0 0.0 -0.0 3.69709 -15.456 5.86804 -3.32496 -0.122548 -0.49549 19.3064 -14.2978 2.6648 6.36023 -0.0 -0.0 0.0 0.0 0.0 
431.979071842 720.603 -1226.50468956 -178.425496965 -64.2255900974 -179.95757559 1.07581 -0.365834 -0.825996 1.07614 -0.312535 -0.847599 1.08092 -0.144282 -0.891784 1.07992 -0.283307 -0.85781 -8.4854 -0.230517 4.65867 -8.42312 -3.69321 4.54936 -0.0 0.0 -0.0 7.52596 -8.94743 14.5382 -44.2332 -70.9784 54.4818 0.639486 -17.5774 0.0988695 13.1461 0.274592 -1.65318 -0.305841 3.98386 -0.347145 -0.0 0.0 -0.0 11.5654 21.4926 -22.8261 -47.5199 56.2329 -45.4902 0.195912 5.54327 -0.0094845 -16.5017 0.864077 -1.91768 -0.360429 20.1155 10.973 0.0 0.0 0.0 13.0519 17.0777 -4.91949 -20.2886 0.292096 3.0835 31.7486 -1.05021 -4.10245 -15.3949 0.0 0.0 -0.0 0.0 -0.0 3.20897 -14.2966 6.39119 -3.84208 -0.139013 -0.573144 18.4769 -14.7584 2.56202 6.57521 -0.0 -0.0 0.0 0.0 0.0 
447.861329856 719.021 -1231.00611218 -179.615728811 -61.5630883134 179.288046306 1.2594 -0.598718 -1.23335 1.2601 -0.51903 -1.26894 1.27191 -0.270733 -1.34398 1.26971 -0.479574 -1.28437 -9.38249 0.350251 4.83759 -9.31638 -2.66283 4.82554 -0.0 0.0 -0.0 7.63927 -8.53373 14.79 -40.0722 -69.2164 57.8722 0.613238 -16.8979 0.0910912 13.1383 0.274543 -1.65219 -0.193397 3.15465 0.0445849 -0.0 0.0 -0.0 10.8208 20.7797 -21.1914 -47.2442 56.2854 -46.4683 0.200869 5.68263 -0.00996934 -16.9207 0.893067 -1.96282 -0.312643 19.564 10.4215 0.0 0.0 0.0 11.5016 12.0256 -3.32095 -21.2517 0.278662 3.23067 32.2814 1.22526 -4.14061 -15.2976 0.0 0.0 -0.0 0.0 -0.0 2.36992 -13.0712 6.96607 -3.92191 -0.141492 -0.585145 19.9942 -15.1909 2.75718 6.92408 -0.0 -0.0 0.0 0.0 0.0 
447.682204715 719.021 -1231.38263386 -179.610907867 -61.9468266964 179.293518826 1.2594 -0.598718 -1.23335 1.2601 -0.51903 -1.26894 1.27191 -0.270733 -1.34398 1.26971 -0.479574 -1.28437 -9.38249 0.350251 4.83759 -9.31638 -2.66283 4.82554 -0.0 0.0 -0.0 7.63927 -8.53373 14.79 -40.0722 -69.2164 57.8722 0.613238 -16.8979 0.0910912 13.1383 0.274543 -1.65219 -0.193397 3.15465 0.0445849 -0.0 0.0 -0.0 10.8208 20.7797 -21.1914 -47.2442 56.2854 -46.4683 0.200869 5.68263 -0.00996934 -16.9207 0.893067 -1.96282 -0.312643 19.564 10.4215 0.0 0.0 0.0 11.5016 12.0256 -3.32095 -21.2517 0.278662 3.23067 32.2814 1.22526 -4.14061 -15.2976 0.0 0.0 -0.0 0.0 -0.0 2.36992 -13.0712 6.96607 -3.92191 -0.141492 -0.585145 19.9942 -15.1909 2.75718 6.92408 -0.0 -0.0 0.0 0.0 0.0 
447.934714961 719.021 -1230.84995487 -179.617684011 -61.4042940421 179.285821154 1.2594 -0.598718 -1.23335 1.2601 -0.51903 -1.26894 1.27191 -0.270733 -1.34398 1.26971 -0.479574 -1.28437 -9.38249 0.350251 4.83759 -9.31638 -2.66283 4.82554 -0.0 0.0 -0.0 7.63927 -8.53373 14.79 -40.0722 -69.2164 57.8722 0.613238 -16.8979 0.0910912 13.1383 0.274543 -1.65219 -0.193397 3.15465 0.0445849 -0.0 0.0 -0.0 10.8208 20.7797 -21.1914 -47.2442 56.2854 -46.4683 0.200869 5.68263 -0.00996934 -16.9207 0.893067 -1.96282 -0.312643 19.564 10.4215 0.0 0.0 0.0 11.5016 12.0256 -3.32095 -21.2517 0.278662 3.23067 32.2814 1.22526 -4.14061 -15.2976 0.0 0.0 -0.0 0.0 -0.0 2.36992 -13.0712 6.96607 -3.92191 -0.141492 -0.585145 19.9942 -15.1909 2.75718 6.92408 -0.0 -0.0 0.0 0.0 0.0 
448.115452949 719.021 -1230.46047939 -179.62245179 -61.0091339816 179.280380772 1.2594 -0.598718 -1.23335 1.2601 -0.51903 -1.26894 1.27191 -0.270733 -1.34398 1.26971 -0.479574 -1.28437 -9.38249 0.350251 4.83759 -9.31638 -2.66283 4.82554 -0.0 0.0 -0.0 7.63927 -8.53373 14.79 -40.0722 -69.2164 57.8722 0.613238 -16.8979 0.0910912 13.1383 0.274543 -1.65219 -0.193397 3.15465 0.0445849 -0.0 0.0 -0.0 10.8208 20.7797 -21.1914 -47.2442 56.2854 -46.4683 0.200869 5.68263 -0.00996934 -16.9207 0.893067 -1.96282 -0.312643 19.564 10.4215 0.0 0.0 0.0 11.5016 12.0256 -3.32095 -21.2517 0.278662 3.23067 32.2814 1.22526 -4.14061 -15.2976 0.0 0.0 -0.0 0.0 -0.0 2.36992 -13.0712 6.96607 -3.92191 -0.141492 -0.585145 19.9942 -15.1909 2.75718 6.92408 -0.0 -0.0 0.0 0.0 0.0 
453.248060097 719.144 -1233.41083212 -179.979391303 -59.8695319351 179.255805272 1.33996 -0.55497 -1.34508 1.34084 -0.468262 -1.37766 1.35242 -0.20241 -1.44091 1.34978 -0.427412 -1.39087 -9.81818 -0.0509905 5.19857 -9.74331 -3.62849 5.06713 -0.0 0.0 -0.0 8.21954 -7.83321 16.0341 -41.5928 -67.3888 52.9868 0.486655 -13.5541 0.0578329 13.1471 0.274599 -1.6533 -0.123724 2.96251 0.42452 -0.0 0.0 -0.0 10.6334 21.2439 -20.7322 -46.8001 56.9021 -48.1221 0.198056 5.60355 -0.00969268 -15.9266 0.82483 -1.85539 -0.507393 18.4833 11.2858 0.0 0.0 0.0 10.7806 6.94634 -2.29994 -21.5112 0.274619 3.27029 32.9224 3.0768 -4.19708 -14.8707 0.0 0.0 -0.0 0.0 -0.0 2.92553 -13.6959 7.3777 -5.22594 -0.179617 -0.781637 20.7256 -12.5782 2.83335 7.38841 -0.0 -0.0 0.0 0.0 0.0 
453.265689684 719.144 -1233.37324739 -179.979412906 -59.8346311181 179.25578029 1.33996 -0.55497 -1.34508 1.34084 -0.468262 -1.37766 1.35242 -0.20241 -1.44091 1.34978 -0.427412 -1.39087 -9.81818 -0.0509905 5.19857 -9.74331 -3.62849 5.06713 -0.0 0.0 -0.0 8.21954 -7.83321 16.0341 -41.5928 -67.3888 52.9868 0.486655 -13.5541 0.0578329 13.1471 0.274599 -1.6533 -0.123724 2.96251 0.42452 -0.0 0.0 -0.0 10.6334 21.2439 -20.7322 -46.8001 56.9021 -48.1221 0.198056 5.60355 -0.00969268 -15.9266 0.82483 -1.85539 -0.507393 18.4833 11.2858 0.0 0.0 0.0 10.7806 6.94634 -2.29994 -21.5112 0.274619 3.27029 32.9224 3.0768 -4.19708 -14.8707 0.0 0.0 -0.0 0.0 -0.0 2.92553 -13.6959 7.3777 -5.22594 -0.179617 -0.781637 20.7256 -12.5782 2.83335 7.38841 -0.0 -0.0 0.0 0.0 0.0 
